Coordinates
version=1
nRows=7
nColumns=63
inDegrees=yes

Units are S.I. units (second, meters, Newtons, ...)
If the header above contains a line with 'inDegrees', this indicates whether rotational values are in degrees (yes) or radians (no).

endheader
time	pelvis_tilt	pelvis_list	pelvis_rotation	pelvis_tx	pelvis_ty	pelvis_tz	hip_flexion_r	hip_adduction_r	hip_rotation_r	knee_angle_r	knee_angle_r_beta	ankle_angle_r	subtalar_angle_r	mtp_angle_r	hip_flexion_l	hip_adduction_l	hip_rotation_l	knee_angle_l	knee_angle_l_beta	ankle_angle_l	subtalar_angle_l	mtp_angle_l	L5_S1_Flex_Ext	L5_S1_Lat_Bending	L5_S1_axial_rotation	L4_L5_Flex_Ext	L4_L5_Lat_Bending	L4_L5_axial_rotation	L3_L4_Flex_Ext	L3_L4_Lat_Bending	L3_L4_axial_rotation	L2_L3_Flex_Ext	L2_L3_Lat_Bending	L2_L3_axial_rotation	L1_L2_Flex_Ext	L1_L2_Lat_Bending	L1_L2_axial_rotation	L1_T12_Flex_Ext	L1_T12_Lat_Bending	L1_T12_axial_rotation	Abs_r3	Abs_r2	Abs_r1	Abs_t1	Abs_t2	neck_flexion	neck_bending	neck_rotation	arm_flex_r	arm_add_r	arm_rot_r	elbow_flex_r	pro_sup_r	wrist_flex_r	wrist_dev_r	arm_flex_l	arm_add_l	arm_rot_l	elbow_flex_l	pro_sup_l	wrist_flex_l	wrist_dev_l
      0.00000000	     -5.64750876	     -5.74439957	     99.10341549	      0.06960555	      1.02636644	      0.36231578	     -6.82458673	     -2.96299466	     -5.40143370	     11.78758958	      0.20573225	     26.95638307	      5.80620215	      0.00000000	     -9.78161843	      2.50895951	      4.19541615	      0.39600614	      0.00691161	     25.05313786	     -0.62794740	      0.00000000	      0.13307655	     -0.20408818	      0.14159678	      0.24713646	     -0.27143728	      0.15044658	      0.21863146	     -0.49621999	      0.15044658	      0.15209319	     -0.49621999	      0.12389718	      0.12357488	     -0.41617661	      0.11504738	      0.07603994	     -0.31613259	      0.10619758	      0.95055249	     -2.30868628	      0.78751881	      0.00000000	      0.00000000	     25.94655846	     -3.08672165	     -0.94228369	      8.63810758	    -10.26671688	     60.95612746	     51.23411280	      1.26016160	    -20.69649919	     17.85534262	     15.41660893	     -7.97389229	     61.02958880	     53.60614493	     65.99834630	      2.63027058	     13.29039076
      0.01785714	     -5.55028062	     -5.44320222	     98.15319244	      0.07006077	      1.02524603	      0.35995518	     -6.97818035	     -3.00187304	     -4.69955183	     12.19106539	      0.21277423	     27.02028767	      6.06438263	      0.00000000	    -10.29767035	      2.61025127	      3.56278718	      0.45570863	      0.00795362	     25.60663033	     -1.41540686	      0.00000000	      0.12290334	     -0.17056644	      0.30208224	      0.22824380	     -0.22685336	      0.32096238	      0.20191790	     -0.41471523	      0.32096238	      0.14046623	     -0.41471523	      0.26432196	      0.11412804	     -0.34781907	      0.24544182	      0.07022697	     -0.26420741	      0.22656168	      0.87788629	     -1.92948163	      1.68009081	      0.00000000	      0.00000000	     26.07830026	     -3.23126496	     -0.33250764	      8.37430788	     -9.62526792	     61.06937334	     50.45214899	      1.06798318	    -23.42610261	     24.37982767	     13.46704311	     -8.44896834	     62.01330973	     53.13959042	     62.58250262	      4.70383984	     18.15790106
      0.03571429	     -5.46760961	     -5.19590372	     97.48433170	      0.07008387	      1.02431416	      0.35774924	     -7.13566762	     -3.01723215	     -4.06264302	     12.45998980	      0.21746785	     27.24817673	      6.27219332	      0.00000000	    -10.72400862	      2.68739384	      2.94441719	      0.51868488	      0.00905276	     25.94266568	     -1.69691077	      0.00000000	      0.11708880	     -0.14201334	      0.43341438	      0.21744560	     -0.18887774	      0.46050278	      0.19236518	     -0.34529123	      0.46050278	      0.13382078	     -0.34529123	      0.37923758	      0.10872866	     -0.28959360	      0.35214918	      0.06690454	     -0.21997866	      0.32506078	      0.83635356	     -1.60648330	      2.41052075	      0.00000000	      0.00000000	     26.15039582	     -3.38010217	      0.03409063	      7.80527212	     -9.23390866	     60.56877342	     50.07680764	      1.01761175	    -25.86597385	     28.06588050	     12.39387864	     -8.59354477	     63.17373394	     52.63650036	     60.25594004	      5.16513359	     20.64236139
      0.05357143	     -5.35048434	     -5.00096613	     96.98563519	      0.07010814	      1.02348667	      0.35554044	     -7.31652302	     -2.95490281	     -3.58054906	     12.52725596	      0.21864186	     27.63177230	      6.59385001	      0.00000000	    -11.06970072	      2.69675362	      2.15284429	      0.59393274	      0.01036608	     26.12835263	     -1.58992737	      0.00000000	      0.12138254	     -0.11487433	      0.53917369	      0.22541951	     -0.15278286	      0.57287205	      0.19941937	     -0.27930545	      0.57287205	      0.13872810	     -0.27930545	      0.47177698	      0.11271582	     -0.23425173	      0.43807863	      0.06935798	     -0.17794034	      0.40438027	      0.86702333	     -1.29948140	      2.99872233	      0.00000000	      0.00000000	     26.07956811	     -3.60287979	      0.22998464	      7.19094601	     -9.17770064	     60.14691587	     50.10614423	      1.01047277	    -27.18175174	     29.52551630	     11.85466662	     -8.64382569	     64.05251188	     52.44036225	     59.30616511	      5.13788239	     21.55532782
      0.07142857	     -5.29851850	     -4.73842371	     96.86183193	      0.06989983	      1.02291830	      0.35350489	     -7.59294431	     -2.88257426	     -3.32025242	     12.62394122	      0.22032934	     28.17269535	      6.80359656	      0.00000000	    -11.46115529	      2.66272935	      1.81387840	      0.67237518	      0.01173516	     26.20683030	     -1.37638160	      0.00000000	      0.10962467	     -0.10221931	      0.55339516	      0.20358397	     -0.13595169	      0.58798236	      0.18010237	     -0.24853604	      0.58798236	      0.12529003	     -0.24853604	      0.48422077	      0.10179747	     -0.20844562	      0.44963357	      0.06263953	     -0.15833772	      0.41504637	      0.78303804	     -1.15632532	      3.07781788	      0.00000000	      0.00000000	     25.94586308	     -3.66874296	      0.15938583	      6.71311008	     -9.26389236	     59.93085233	     50.30969297	      1.05687708	    -27.34109873	     29.54184667	     11.50225996	     -8.80090608	     64.10619696	     52.67682586	     59.23206379	      5.15803750	     21.31132207
      0.08928571	     -5.24670236	     -4.51922720	     96.51231255	      0.06990911	      1.02251249	      0.35158373	     -7.77964716	     -2.93635899	     -3.58382255	     12.71352812	      0.22189293	     28.90063182	      8.12304210	      0.00000000	    -11.75086407	      2.63709015	     -2.78140890	      0.86535006	      0.01510321	     27.06532749	      4.37731548	      0.00000000	      0.10237137	     -0.08887289	      0.62980496	      0.19011387	     -0.11820095	      0.66916776	      0.16818592	     -0.21608555	      0.66916776	      0.11700024	     -0.21608555	      0.55107934	      0.09506205	     -0.18122960	      0.51171653	      0.05849500	     -0.13766411	      0.47235372	      0.73122845	     -1.00534794	      3.50278622	      0.00000000	      0.00000000	     25.82389478	     -3.87252144	     -0.05095097	      6.06486234	     -9.42853226	     58.99995566	     50.73230725	      1.14157065	    -27.95513902	     29.00548906	     11.36374600	     -8.66908386	     63.60452927	     52.72586321	     61.05966875	      5.87394398	     20.40171894
      0.10714286	     -5.24095921	     -4.23319085	     96.44990156	      0.06985257	      1.02210047	      0.34965521	     -8.11875294	     -2.88965979	     -3.39794831	     12.77688535	      0.22299872	     29.36258977	      8.22363399	      0.00000000	    -12.14414646	      2.61695775	     -2.95211451	      0.97225723	      0.01696909	     27.06349001	      4.45031800	      0.00000000	      0.08497556	     -0.08600473	      0.63263257	      0.15780810	     -0.11438629	      0.67217211	      0.13960634	     -0.20911189	      0.67217211	      0.09711856	     -0.20911189	      0.55355350	      0.07890830	     -0.17538084	      0.51401397	      0.04855503	     -0.13322132	      0.47447443	      0.60697190	     -0.97290266	      3.51851259	      0.00000000	      0.00000000	     25.59189473	     -3.85303068	     -0.13951880	      5.78248663	     -9.65308283	     58.78053554	     51.15578270	      1.25509047	    -27.57441547	     28.45023721	     11.31297030	     -8.77314009	     63.30004899	     53.10519224	     61.31533332	      5.83331131	     19.81966761
